HIERARCHY
ROOT Hips
{
	OFFSET 0.0000 0.0000 0.0000
	CHANNELS 6 Xposition Yposition Zposition Zrotation Xrotation Yrotation
	JOINT Spine1
	{
		OFFSET -0.0137 5.0038 -0.0537
		CHANNELS 3 Zrotation Xrotation Yrotation
		JOINT Spine2
		{
			OFFSET -0.0000 7.1253 -0.0298
			CHANNELS 3 Zrotation Xrotation Yrotation
			JOINT Chest
			{
				OFFSET -0.0000 7.5501 -0.8160
				CHANNELS 3 Zrotation Xrotation Yrotation
				JOINT Neck1
				{
					OFFSET -0.1817 26.3113 -0.5533
					CHANNELS 3 Zrotation Xrotation Yrotation
					JOINT Neck2
					{
						OFFSET -0.0000 7.7094 2.3026
						CHANNELS 3 Zrotation Xrotation Yrotation
						JOINT Head
						{
							OFFSET -0.0000 6.1289 1.9537
							CHANNELS 3 Zrotation Xrotation Yrotation
							JOINT Jaw
							{
								OFFSET 0.0026 0.4756 3.0949
								CHANNELS 3 Zrotation Xrotation Yrotation
								End Site
								{
									OFFSET 0.0 1.0 0.0
								}
							}
							JOINT LeftEye
							{
								OFFSET 3.2064 5.3802 7.5869
								CHANNELS 3 Zrotation Xrotation Yrotation
								End Site
								{
									OFFSET 0.0 1.0 0.0
								}
							}
							JOINT RightEye
							{
								OFFSET -3.2224 5.3619 7.5582
								CHANNELS 3 Zrotation Xrotation Yrotation
								End Site
								{
									OFFSET 0.0 1.0 0.0
								}
							}
						}
					}
				}
				JOINT LeftShoulder
				{
					OFFSET 1.6217 23.2372 5.1134
					CHANNELS 3 Zrotation Xrotation Yrotation
					JOINT LeftArm
					{
						OFFSET 14.9198 0.0000 -5.5023
						CHANNELS 3 Zrotation Xrotation Yrotation
						JOINT LeftForeArm
						{
							OFFSET 28.7393 0.0000 -0.0026
							CHANNELS 3 Zrotation Xrotation Yrotation
							JOINT LeftHand
							{
								OFFSET 27.0940 -0.0000 0.0026
								CHANNELS 3 Zrotation Xrotation Yrotation
								JOINT LeftHandThumbEnd
								{
									OFFSET 12.2686 -3.2202 4.8331
									CHANNELS 3 Zrotation Xrotation Yrotation
									End Site
									{
										OFFSET 0.0 1.0 0.0
									}
								}
								JOINT LeftHandMiddleEnd
								{
									OFFSET 19.0120 -0.3129 -0.0340
									CHANNELS 3 Zrotation Xrotation Yrotation
									End Site
									{
										OFFSET 0.0 1.0 0.0
									}
								}
							}
						}
					}
				}
				JOINT RightShoulder
				{
					OFFSET -1.3801 23.1803 5.2142
					CHANNELS 3 Zrotation Xrotation Yrotation
					JOINT RightArm
					{
						OFFSET -15.0372 0.0000 -5.5456
						CHANNELS 3 Zrotation Xrotation Yrotation
						JOINT RightForeArm
						{
							OFFSET -28.7366 0.0000 -0.0026
							CHANNELS 3 Zrotation Xrotation Yrotation
							JOINT RightHand
							{
								OFFSET -27.1336 -0.0000 0.0026
								CHANNELS 3 Zrotation Xrotation Yrotation
								JOINT RightHandThumbEnd
								{
									OFFSET -12.2642 -3.2115 4.8040
									CHANNELS 3 Zrotation Xrotation Yrotation
									End Site
									{
										OFFSET 0.0 1.0 0.0
									}
								}
								JOINT RightHandMiddleEnd
								{
									OFFSET -19.0006 -0.3066 -0.0316
									CHANNELS 3 Zrotation Xrotation Yrotation
									End Site
									{
										OFFSET 0.0 1.0 0.0
									}
								}
							}
						}
					}
				}
			}
		}
	}
	JOINT LeftLeg
	{
		OFFSET 10.0432 -8.4345 2.5957
		CHANNELS 3 Zrotation Xrotation Yrotation
		JOINT LeftShin
		{
			OFFSET -0.0000 -43.2218 -0.8029
			CHANNELS 3 Zrotation Xrotation Yrotation
			JOINT LeftFoot
			{
				OFFSET 0.0000 -42.1551 -3.4815
				CHANNELS 3 Zrotation Xrotation Yrotation
				JOINT LeftToeBase
				{
					OFFSET 0.0000 -5.0595 13.2315
					CHANNELS 3 Zrotation Xrotation Yrotation
					End Site
					{
						OFFSET 0.0 1.0 0.0
					}
				}
			}
		}
	}
	JOINT RightLeg
	{
		OFFSET -10.0473 -8.2953 2.6203
		CHANNELS 3 Zrotation Xrotation Yrotation
		JOINT RightShin
		{
			OFFSET 0.0000 -43.3622 -0.8056
			CHANNELS 3 Zrotation Xrotation Yrotation
			JOINT RightFoot
			{
				OFFSET 0.0000 -42.1174 -3.4784
				CHANNELS 3 Zrotation Xrotation Yrotation
				JOINT RightToeBase
				{
					OFFSET -0.0000 -5.0796 13.2842
					CHANNELS 3 Zrotation Xrotation Yrotation
					End Site
					{
						OFFSET 0.0 1.0 0.0
					}
				}
			}
		}
	}
}
MOTION
Frames: 5
Frame Time: 0.033333
-0.2618 93.4123 1.8293 3.1628 -0.2307 0.2881 -1.5992 14.8602 -1.0068 -0.9858 3.1244 -0.4508 -0.1053 33.8023 -2.5509 15.2778 6.4872 -1.6156 -3.7140 -3.9034 -10.1917 5.8748 -9.3451 -14.8852 -0.1380 -0.0766 0.1378 0.6094 -10.4459 -3.6431 -0.8822 -10.4625 3.9500 9.6152 13.6987 -5.9568 -40.0709 -28.5413 -9.9408 1.4098 0.0485 -72.2704 12.9335 34.8903 28.2837 -16.3840 9.2485 13.6886 -58.8947 1.6096 1.7016 -6.1757 10.3551 18.5367 68.9048 -48.9970 -39.7796 -0.8824 -0.8750 128.3636 28.9512 29.7499 -9.4307 14.6962 7.1974 -16.1419 49.4601 -3.3006 -5.8760 16.5680 -14.2539 -5.1993 -0.1234 22.9552 -0.7778 -19.9917 -7.3386 4.5426 1.6281 -1.5928 -2.0094 -25.3050 -19.6261 13.9590 0.4542 22.5224 1.5515 20.9871 0.3591 2.1124 -1.4387 -1.1819 1.3415
-0.1487 93.5897 1.9495 3.4198 0.0743 0.3248 -1.6310 14.8836 -1.0516 -0.9708 3.0918 -0.4224 -0.2866 33.7060 -2.7021 15.4530 6.4520 -1.6983 -3.8513 -3.9400 -10.3607 5.9155 -9.1845 -15.2017 -0.1397 -0.1042 0.1242 0.6035 -10.4352 -3.6498 -0.8790 -10.4587 3.9278 9.4841 13.6644 -6.1954 -39.3141 -28.5831 -10.0194 1.4921 0.0457 -71.7648 12.4658 34.9182 27.7103 -16.2576 9.3121 13.6573 -59.0824 1.6180 1.5485 -6.3188 10.1110 18.5430 69.1043 -49.6701 -40.7898 -0.7129 -0.8472 127.7997 28.8177 29.5657 -9.0727 14.8046 7.1020 -16.0395 49.3889 -3.2887 -5.8372 16.1800 -14.0931 -5.3142 -0.1382 22.1093 -0.7804 -19.8510 -7.1955 4.7465 1.6195 -1.6932 -2.0146 -25.7348 -19.3522 14.1896 0.3886 21.7379 1.5036 21.1946 0.9236 1.7825 -1.4465 -1.2428 1.3234
-0.0625 93.6647 1.9783 3.7548 0.3144 0.3476 -1.7141 14.9370 -1.0859 -0.9504 3.1218 -0.4304 -0.4530 33.6469 -2.7943 15.5699 6.3432 -1.7303 -3.9602 -3.9874 -10.6577 5.8975 -9.1420 -15.5355 -0.1384 -0.1125 0.1207 0.6031 -10.4433 -3.6555 -0.8745 -10.4666 3.9226 9.3968 13.7111 -6.4542 -38.5026 -28.6038 -10.0991 1.4140 -0.0013 -71.4786 11.5406 35.1717 27.1071 -16.1515 9.3427 13.6520 -59.1637 1.6409 1.4806 -6.4348 9.9726 18.6058 68.9138 -50.3798 -41.2436 -0.7831 -0.9347 127.2487 28.6849 29.4558 -8.9997 14.8975 7.0853 -15.9996 49.3614 -3.2893 -5.8676 15.7284 -14.0551 -5.5445 -0.1302 21.6485 -0.7738 -19.6810 -7.1050 5.0435 1.6207 -1.6871 -2.0245 -26.2815 -19.3001 14.3649 0.3670 21.3912 1.4928 21.4639 1.2446 1.6894 -1.4499 -1.2656 1.3059
0.0213 93.6503 1.9714 4.0559 0.4816 0.3145 -1.7792 15.0338 -1.0850 -0.9331 3.1775 -0.4428 -0.5518 33.6804 -2.8346 15.6007 6.1892 -1.7190 -4.0565 -4.0244 -10.9904 5.8793 -9.2869 -15.8328 -0.1320 -0.1133 0.1204 0.6108 -10.4442 -3.6579 -0.8679 -10.4657 3.9189 9.3404 13.7696 -6.6306 -37.7413 -28.6842 -10.2161 1.2279 -0.0294 -71.3960 10.5626 35.7142 26.5085 -16.1084 9.3333 13.6503 -59.2042 1.6549 1.4363 -6.5469 9.9281 18.6859 68.6259 -51.1272 -41.3881 -0.9095 -1.0136 126.7814 28.6558 29.1660 -9.1484 14.9555 7.0855 -16.0011 49.3261 -3.3038 -5.9112 15.3265 -14.1475 -5.7597 -0.1149 21.5894 -0.7593 -19.5917 -7.0697 5.2948 1.6185 -1.6308 -2.0365 -26.8043 -19.3934 14.5751 0.3527 21.4082 1.4769 21.7483 1.3501 1.7222 -1.4504 -1.2741 1.2938
0.1151 93.5906 1.9688 4.3478 0.5598 0.2892 -1.8490 15.1715 -1.0863 -0.9215 3.2581 -0.4430 -0.6168 33.7912 -2.8505 15.6164 5.9752 -1.6944 -4.1679 -4.0546 -11.2955 5.9074 -9.5056 -16.0887 -0.1352 -0.1106 0.1217 0.6069 -10.4280 -3.6522 -0.8707 -10.4456 3.9161 9.3461 13.7926 -6.7049 -37.1090 -28.8115 -10.2931 1.0349 -0.0570 -71.4778 9.6411 36.2542 25.9094 -16.0743 9.3326 13.6606 -59.1984 1.6641 1.3987 -6.6495 9.9143 18.7797 68.4572 -51.8140 -41.4543 -1.0500 -1.0617 126.4218 28.7449 28.7883 -9.4041 14.9725 7.1024 -16.0018 49.3542 -3.3071 -5.9035 14.9525 -14.3251 -5.9752 -0.1026 21.8529 -0.7515 -19.6001 -7.1100 5.5450 1.6188 -1.4982 -2.0483 -27.2936 -19.5212 14.7771 0.3469 21.6436 1.4779 22.0307 1.2868 1.7433 -1.4465 -1.2725 1.2867
